# xmcd
#
# Track frame offsets:
#	150
#	10231
#	22950
#	35727
#	47378
#	57495
#	68899
#	79247
#	89897
#	102071
#	115162
#	127185
#	137989
#	150186
#	160412
#	172133
#	181930
#	192879
#	204835
#	215583
#	226630
#	236422
#	248322
#	257671
#	267582
#	277240
#
# Disc length: 3831 seconds
#
# Revision: 0
# Processed by: cddbd v1.5.2PL0 Copyright (c) Steve Scherf et al.
# Submitted via: EasyCDDAExtractor 16.0.1.1
#
DISCID=6d0ef51a
DTITLE=Wilf Carter [Montana Slim] - A Canadian Legend [Bear Family] Disc 3
DYEAR=195
DGENRE=Country
TTITLE0=No! No! Don't Ring Those Bells
TTITLE1=Give A Little  Take A Little
TTITLE2=Unfaithful One
TTITLE3=The Little Shirt My Mother Made For Me
TTITLE4=Guilty Conscience (1952)
TTITLE5=Take It Easy Blues
TTITLE6=My Heart's Closed For Repairs (1951)
TTITLE7=My Wife Is On A Diet (1951)
TTITLE8=Let's Go Back To The Bible (1951)
TTITLE9=She'll Be There (What A Friend We Have In Mother) (1951)
TTITLE10=I Wish There Were Only Three Days In The Year (1952)
TTITLE11=When That Love Bug Bites You (He'll Keep Gnawin'  Gnawin'  Gnawin')
TTITLE12=Just A Woman's Smile (1951)
TTITLE13=Rudolph  The Red Nosed Reindeer
TTITLE14=Apple  Cherry  Mince And Choc'late Cream
TTITLE15=Jolly Old St  Nicholas
TTITLE16=The KP Blues
TTITLE17=The Blue Canadian Rockies
TTITLE18=Dear Evalina
TTITLE19=My Oklahoma Rose (1952)
TTITLE20=What Cigarette Is Best (1952)
TTITLE21=Sick, Sober And Sorry (1951)
TTITLE22=Teardrops Don't Always Mean A Broken Heart (1951)
TTITLE23=Wha Hoppen! (1951)
TTITLE24=Punkinhead (The Little Bear) (1951)
TTITLE25=The Night Before Christmas In Texas That Is (1951)
EXTD=
EXTT0=
EXTT1=
EXTT2=
EXTT3=
EXTT4=
EXTT5=
EXTT6=
EXTT7=
EXTT8=
EXTT9=
EXTT10=
EXTT11=
EXTT12=
EXTT13=
EXTT14=
EXTT15=
EXTT16=
EXTT17=
EXTT18=
EXTT19=
EXTT20=
EXTT21=
EXTT22=
EXTT23=
EXTT24=
EXTT25=
PLAYORDER=
